<?xml version="1.0" encoding="UTF-8" standalone="no"?>
<!DOCTYPE svg PUBLIC "-//W3C//DTD SVG 1.1//EN" "http://www.w3.org/Graphics/SVG/1.1/DTD/svg11.dtd">
<svg width="100%" height="100%" viewBox="0 0 634 326" version="1.1" xmlns="http://www.w3.org/2000/svg" xmlns:xlink="http://www.w3.org/1999/xlink" xml:space="preserve" xmlns:serif="http://www.serif.com/" style="fill-rule:evenodd;clip-rule:evenodd;stroke-linejoin:round;stroke-miterlimit:2;">
    <g transform="matrix(2.377684,0,0,4.166667,0,0)">
        <g id="uuid-74882d3b-6d54-414c-a9cb-5b3e307064ba" transform="matrix(1.752405,0,0,1,0,0)">
            <g transform="matrix(-1,0,0,1,107.5,-67.6414)">
                <rect x="53.16" y="68.091" width="1.18" height="9.46" style="fill:rgb(98,187,70);"/>
            </g>
            <g transform="matrix(1,0,0,1,56.62,10.3)">
                <path d="M0,-10.3L7.1,-2.86L7.1,-9.85L8.28,-9.85L8.28,0L1.18,-7.44L1.18,-0.39L0,-0.39L0,-10.3Z" style="fill:rgb(98,187,70);fill-rule:nonzero;"/>
            </g>
            <g transform="matrix(1,0,0,1,69.75,0.45)">
                <path d="M0,9.46L-1.18,9.46L-1.18,1.08L-3.43,1.08L-3.43,0L2.25,0L2.25,1.08L0,1.08L0,9.46Z" style="fill:rgb(98,187,70);fill-rule:nonzero;"/>
            </g>
            <g transform="matrix(1,0,0,1,73.56,9.92)">
                <path d="M0,-9.47L5.08,-9.47L5.08,-8.39L1.18,-8.39L1.18,-5.74L4.97,-5.74L4.97,-4.66L1.18,-4.66L1.18,-1.08L5.08,-1.08L5.08,0L0,0L0,-9.47Z" style="fill:rgb(98,187,70);fill-rule:nonzero;"/>
            </g>
            <g transform="matrix(1,0,0,1,81.9,5.43)">
                <path d="M0,-0.5L0.38,-0.5C1.58,-0.5 2.89,-0.73 2.89,-2.23C2.89,-3.71 1.49,-3.92 0.32,-3.92L0,-3.92L0,-0.5ZM4.7,4.48L3.27,4.48L0.49,0.48L0,0.48L0,4.48L-1.18,4.48L-1.18,-4.98L0.25,-4.98C1.09,-4.98 1.99,-4.97 2.75,-4.54C3.54,-4.08 3.99,-3.19 3.99,-2.28C3.99,-0.93 3.09,0.2 1.72,0.37L4.7,4.48Z" style="fill:rgb(98,187,70);fill-rule:nonzero;"/>
            </g>
            <g transform="matrix(1,0,0,1,88.05,10.3)">
                <path d="M0,-10.3L7.1,-2.86L7.1,-9.85L8.28,-9.85L8.28,0L1.18,-7.44L1.18,-0.39L0,-0.39L0,-10.3Z" style="fill:rgb(98,187,70);fill-rule:nonzero;"/>
            </g>
            <g transform="matrix(1,0,0,1,102.15,7.33)">
                <path d="M0,-4.7L-1.68,-0.87L1.68,-0.87L0,-4.7ZM-2.17,0.21L-3.25,2.58L-4.52,2.58L0,-7.28L4.52,2.58L3.25,2.58L2.17,0.21L-2.17,0.21Z" style="fill:rgb(98,187,70);fill-rule:nonzero;"/>
            </g>
            <g transform="matrix(1,0,0,1,109.63,0.45)">
                <path d="M0,9.46L-1.18,9.46L-1.18,1.08L-3.43,1.08L-3.43,0L2.24,0L2.24,1.08L-0.01,1.08L-0.01,9.46L0,9.46Z" style="fill:rgb(98,187,70);fill-rule:nonzero;"/>
            </g>
            <g transform="matrix(-1,0,0,1,227.96,-67.6414)">
                <rect x="113.39" y="68.091" width="1.18" height="9.46" style="fill:rgb(98,187,70);"/>
            </g>
            <g transform="matrix(1,0,0,1,125.03,5.18)">
                <path d="M0,0C0,-2.08 -1.56,-3.83 -3.78,-3.83C-6,-3.83 -7.56,-2.09 -7.56,0C-7.56,2.16 -5.83,3.83 -3.78,3.83C-1.73,3.83 0,2.16 0,0M1.18,0C1.18,2.81 -1.04,4.93 -3.77,4.93C-6.5,4.93 -8.72,2.81 -8.72,0C-8.72,-2.71 -6.47,-4.93 -3.77,-4.93C-1.06,-4.93 1.18,-2.71 1.18,0" style="fill:rgb(98,187,70);fill-rule:nonzero;"/>
            </g>
            <g transform="matrix(1,0,0,1,127.87,10.3)">
                <path d="M0,-10.3L7.1,-2.86L7.1,-9.85L8.28,-9.85L8.28,0L1.18,-7.44L1.18,-0.39L0,-0.39L0,-10.3Z" style="fill:rgb(98,187,70);fill-rule:nonzero;"/>
            </g>
            <g transform="matrix(1,0,0,1,141.97,7.33)">
                <path d="M0,-4.7L-1.68,-0.87L1.68,-0.87L0,-4.7ZM-2.17,0.21L-3.25,2.58L-4.52,2.58L0,-7.28L4.52,2.58L3.25,2.58L2.17,0.21L-2.17,0.21Z" style="fill:rgb(98,187,70);fill-rule:nonzero;"/>
            </g>
            <g transform="matrix(1,0,0,1,149.08,1.53)">
                <path d="M0,7.3L2.87,7.3L2.87,8.38L-1.18,8.38L-1.18,-1.08L0,-1.08L0,7.3Z" style="fill:rgb(98,187,70);fill-rule:nonzero;"/>
            </g>
            <g transform="matrix(1,0,0,1,54.36,24.85)">
                <path d="M0,-7.3L0,-4.64L3.29,-4.64L3.29,-3.56L0,-3.56L0,1.08L-1.18,1.08L-1.18,-8.38L3.4,-8.38L3.4,-7.3L0,-7.3Z" style="fill:rgb(98,187,70);fill-rule:nonzero;"/>
            </g>
            <g transform="matrix(1,0,0,1,67.83,21.2)">
                <path d="M0,0C0,-2.08 -1.56,-3.83 -3.78,-3.83C-6,-3.83 -7.56,-2.09 -7.56,0C-7.56,2.16 -5.83,3.83 -3.78,3.83C-1.73,3.82 0,2.15 0,0M1.18,0C1.18,2.81 -1.04,4.93 -3.77,4.93C-6.5,4.93 -8.73,2.81 -8.73,0C-8.73,-2.71 -6.48,-4.93 -3.77,-4.93C-1.06,-4.93 1.18,-2.71 1.18,0" style="fill:rgb(98,187,70);fill-rule:nonzero;"/>
            </g>
            <g transform="matrix(1,0,0,1,78.85,21.2)">
                <path d="M0,0C0,-2.08 -1.56,-3.83 -3.78,-3.83C-6,-3.83 -7.56,-2.09 -7.56,0C-7.56,2.16 -5.83,3.83 -3.78,3.83C-1.73,3.82 0,2.15 0,0M1.18,0C1.18,2.81 -1.04,4.93 -3.77,4.93C-6.5,4.93 -8.73,2.81 -8.73,0C-8.73,-2.71 -6.48,-4.93 -3.77,-4.93C-1.07,-4.93 1.18,-2.71 1.18,0" style="fill:rgb(98,187,70);fill-rule:nonzero;"/>
            </g>
            <g transform="matrix(1,0,0,1,82.88,17.55)">
                <path d="M0,7.3L0.41,7.3C2.82,7.3 4.9,6.4 4.9,3.65C4.9,0.89 2.82,0 0.41,0L0,0L0,7.3ZM-1.18,-1.08L0.78,-1.08C3.68,-1.08 6.09,0.45 6.09,3.6C6.09,6.82 3.73,8.38 0.75,8.38L-1.18,8.38L-1.18,-1.08Z" style="fill:rgb(98,187,70);fill-rule:nonzero;"/>
            </g>
            <g transform="matrix(1,0,0,1,96.2,21.49)">
                <path d="M0,-0.58L0.38,-0.58C1.58,-0.58 2.89,-0.81 2.89,-2.31C2.89,-3.79 1.49,-3.97 0.32,-3.97L0,-3.97L0,-0.58ZM0,4.44L-1.18,4.44L-1.18,-5.02L0.17,-5.02C3.08,-5.02 3.98,-4.02 3.98,-2.29C3.98,-0.3 2.46,0.47 0.67,0.47L0,0.47L0,4.44Z" style="fill:rgb(98,187,70);fill-rule:nonzero;"/>
            </g>
            <g transform="matrix(1,0,0,1,109.93,21.2)">
                <path d="M0,0C0,-2.08 -1.56,-3.83 -3.78,-3.83C-6,-3.83 -7.56,-2.09 -7.56,0C-7.56,2.16 -5.83,3.83 -3.78,3.83C-1.74,3.82 0,2.15 0,0M1.17,0C1.17,2.81 -1.05,4.93 -3.78,4.93C-6.51,4.93 -8.74,2.81 -8.74,0C-8.74,-2.71 -6.49,-4.93 -3.78,-4.93C-1.07,-4.93 1.17,-2.71 1.17,0" style="fill:rgb(98,187,70);fill-rule:nonzero;"/>
            </g>
            <g transform="matrix(1,0,0,1,114.05,17.55)">
                <path d="M0,7.3L2.87,7.3L2.87,8.38L-1.18,8.38L-1.18,-1.08L0,-1.08L0,7.3Z" style="fill:rgb(98,187,70);fill-rule:nonzero;"/>
            </g>
            <g transform="matrix(-1,0,0,1,237.76,-35.6014)">
                <rect x="118.29" y="52.071" width="1.18" height="9.46" style="fill:rgb(98,187,70);"/>
            </g>
            <g transform="matrix(1,0,0,1,128.76,24.09)">
                <path d="M0,-5.82C-0.68,-6.42 -1.61,-6.75 -2.5,-6.75C-4.62,-6.75 -6.24,-4.98 -6.24,-2.89C-6.24,-0.82 -4.63,0.95 -2.53,0.95C-1.6,0.95 -0.71,0.6 -0.01,-0.03L-0.01,1.36C-0.74,1.79 -1.67,2.02 -2.49,2.02C-5.19,2.02 -7.42,-0.12 -7.42,-2.86C-7.42,-5.66 -5.17,-7.84 -2.39,-7.84C-1.56,-7.84 -0.72,-7.64 -0.01,-7.2L-0.01,-5.82L0,-5.82Z" style="fill:rgb(98,187,70);fill-rule:nonzero;"/>
            </g>
            <g transform="matrix(1,0,0,1,129.81,25.92)">
                <path d="M0,-9.45L1.36,-9.45L3.68,-5.41L6,-9.45L7.35,-9.45L4.26,-4.11L4.26,0L3.08,0L3.08,-4.11L0,-9.45Z" style="fill:rgb(98,187,70);fill-rule:nonzero;"/>
            </g>
            <g transform="matrix(1,0,0,1,54.37,37.46)">
                <path d="M0,-0.5L0.38,-0.5C1.58,-0.5 2.89,-0.73 2.89,-2.23C2.89,-3.71 1.49,-3.92 0.32,-3.92L0.01,-3.92L0.01,-0.5L0,-0.5ZM4.71,4.48L3.28,4.48L0.5,0.48L0.01,0.48L0.01,4.48L-1.17,4.48L-1.17,-4.98L0.26,-4.98C1.1,-4.98 2,-4.97 2.76,-4.54C3.55,-4.08 4,-3.19 4,-2.28C4,-0.93 3.1,0.2 1.73,0.37L4.71,4.48Z" style="fill:rgb(98,187,70);fill-rule:nonzero;"/>
            </g>
            <g transform="matrix(1,0,0,1,60.63,41.95)">
                <path d="M0,-9.47L5.08,-9.47L5.08,-8.39L1.18,-8.39L1.18,-5.74L4.97,-5.74L4.97,-4.66L1.18,-4.66L1.18,-1.08L5.08,-1.08L5.08,0L0,0L0,-9.47Z" style="fill:rgb(98,187,70);fill-rule:nonzero;"/>
            </g>
            <g transform="matrix(1,0,0,1,72,40.13)">
                <path d="M0,-5.85C-0.35,-6.44 -0.8,-6.74 -1.52,-6.74C-2.27,-6.74 -3.1,-6.23 -3.1,-5.4C-3.1,-4.66 -2.37,-4.27 -1.78,-4.05L-1.1,-3.79C0.24,-3.26 1.25,-2.52 1.25,-0.94C1.25,0.78 -0.08,2.01 -1.77,2.01C-3.3,2.01 -4.49,0.88 -4.69,-0.64L-3.5,-0.89C-3.51,0.15 -2.68,0.9 -1.67,0.9C-0.65,0.9 0.07,0.05 0.07,-0.94C0.07,-1.96 -0.75,-2.4 -1.56,-2.73L-2.21,-3.01C-3.29,-3.47 -4.27,-4.09 -4.27,-5.41C-4.27,-6.94 -2.92,-7.86 -1.49,-7.86C-0.44,-7.86 0.43,-7.35 0.94,-6.43L0,-5.85Z" style="fill:rgb(98,187,70);fill-rule:nonzero;"/>
            </g>
            <g transform="matrix(1,0,0,1,75.16,41.95)">
                <path d="M0,-9.47L5.08,-9.47L5.08,-8.39L1.18,-8.39L1.18,-5.74L4.97,-5.74L4.97,-4.66L1.18,-4.66L1.18,-1.08L5.08,-1.08L5.08,0L0,0L0,-9.47Z" style="fill:rgb(98,187,70);fill-rule:nonzero;"/>
            </g>
            <g transform="matrix(1,0,0,1,85.84,39.35)">
                <path d="M0,-4.68L-1.68,-0.85L1.68,-0.85L0,-4.68ZM-2.17,0.22L-3.25,2.59L-4.52,2.59L0,-7.27L4.52,2.59L3.25,2.59L2.17,0.22L-2.17,0.22Z" style="fill:rgb(98,187,70);fill-rule:nonzero;"/>
            </g>
            <g transform="matrix(1,0,0,1,92.95,37.46)">
                <path d="M0,-0.5L0.38,-0.5C1.58,-0.5 2.89,-0.73 2.89,-2.23C2.89,-3.71 1.49,-3.92 0.32,-3.92L0.01,-3.92L0.01,-0.5L0,-0.5ZM4.71,4.48L3.28,4.48L0.5,0.48L0.01,0.48L0.01,4.48L-1.17,4.48L-1.17,-4.98L0.26,-4.98C1.1,-4.98 2,-4.97 2.76,-4.54C3.55,-4.08 4,-3.19 4,-2.28C4,-0.93 3.1,0.2 1.73,0.37L4.71,4.48Z" style="fill:rgb(98,187,70);fill-rule:nonzero;"/>
            </g>
            <g transform="matrix(1,0,0,1,106.1,40.13)">
                <path d="M0,-5.84C-0.68,-6.44 -1.61,-6.77 -2.5,-6.77C-4.62,-6.77 -6.24,-5 -6.24,-2.91C-6.24,-0.84 -4.63,0.93 -2.53,0.93C-1.6,0.93 -0.71,0.58 -0.01,-0.05L-0.01,1.34C-0.74,1.77 -1.67,2.01 -2.49,2.01C-5.19,2.01 -7.42,-0.14 -7.42,-2.87C-7.42,-5.67 -5.17,-7.85 -2.39,-7.85C-1.56,-7.85 -0.72,-7.65 -0.01,-7.21L-0.01,-5.84L0,-5.84Z" style="fill:rgb(98,187,70);fill-rule:nonzero;"/>
            </g>
            <g transform="matrix(1,0,0,1,113.72,38.13)">
                <path d="M0,-1.83L0,-5.64L1.18,-5.64L1.18,3.82L0,3.82L0,-0.73L-4.5,-0.73L-4.5,3.81L-5.68,3.81L-5.68,-5.65L-4.5,-5.65L-4.5,-1.84L0,-1.84L0,-1.83Z" style="fill:rgb(98,187,70);fill-rule:nonzero;"/>
            </g>
            <g transform="matrix(-1,0,0,1,107.5,28.4586)">
                <rect x="53.16" y="20.041" width="1.18" height="9.46" style="fill:rgb(98,187,70);"/>
            </g>
            <g transform="matrix(1,0,0,1,56.62,58.35)">
                <path d="M0,-10.3L7.1,-2.86L7.1,-9.85L8.28,-9.85L8.28,0L1.18,-7.44L1.18,-0.39L0,-0.39L0,-10.3Z" style="fill:rgb(98,187,70);fill-rule:nonzero;"/>
            </g>
            <g transform="matrix(1,0,0,1,71.41,56.14)">
                <path d="M0,-5.85C-0.35,-6.44 -0.8,-6.74 -1.52,-6.74C-2.27,-6.74 -3.1,-6.23 -3.1,-5.4C-3.1,-4.66 -2.37,-4.27 -1.78,-4.05L-1.1,-3.79C0.24,-3.26 1.25,-2.52 1.25,-0.94C1.25,0.78 -0.08,2.01 -1.77,2.01C-3.3,2.01 -4.49,0.88 -4.69,-0.64L-3.5,-0.89C-3.51,0.15 -2.68,0.9 -1.67,0.9C-0.65,0.9 0.07,0.05 0.07,-0.94C0.07,-1.96 -0.75,-2.4 -1.56,-2.73L-2.21,-3.01C-3.29,-3.47 -4.27,-4.09 -4.27,-5.41C-4.27,-6.94 -2.92,-7.86 -1.49,-7.86C-0.44,-7.86 0.43,-7.35 0.94,-6.43L0,-5.85Z" style="fill:rgb(98,187,70);fill-rule:nonzero;"/>
            </g>
            <g transform="matrix(1,0,0,1,77.12,48.5)">
                <path d="M0,9.46L-1.18,9.46L-1.18,1.08L-3.43,1.08L-3.43,0L2.24,0L2.24,1.08L-0.01,1.08L-0.01,9.46L0,9.46Z" style="fill:rgb(98,187,70);fill-rule:nonzero;"/>
            </g>
            <g transform="matrix(-1,0,0,1,162.94,28.4586)">
                <rect x="80.88" y="20.041" width="1.18" height="9.46" style="fill:rgb(98,187,70);"/>
            </g>
            <g transform="matrix(1,0,0,1,87.01,48.5)">
                <path d="M0,9.46L-1.18,9.46L-1.18,1.08L-3.43,1.08L-3.43,0L2.24,0L2.24,1.08L-0.01,1.08L-0.01,9.46L0,9.46Z" style="fill:rgb(98,187,70);fill-rule:nonzero;"/>
            </g>
            <g transform="matrix(1,0,0,1,91.82,58.16)">
                <path d="M0,-9.66L0,-4.08C0,-2.54 0.46,-1.11 2.28,-1.11C4.1,-1.11 4.56,-2.54 4.56,-4.08L4.56,-9.66L5.74,-9.66L5.74,-3.68C5.74,-1.6 4.45,0 2.28,0C0.11,0 -1.18,-1.59 -1.18,-3.68L-1.18,-9.66L0,-9.66Z" style="fill:rgb(98,187,70);fill-rule:nonzero;"/>
            </g>
            <g transform="matrix(1,0,0,1,102.37,48.5)">
                <path d="M0,9.46L-1.18,9.46L-1.18,1.08L-3.43,1.08L-3.43,0L2.24,0L2.24,1.08L-0.01,1.08L-0.01,9.46L0,9.46Z" style="fill:rgb(98,187,70);fill-rule:nonzero;"/>
            </g>
            <g transform="matrix(1,0,0,1,106.18,57.97)">
                <path d="M0,-9.47L5.08,-9.47L5.08,-8.39L1.18,-8.39L1.18,-5.74L4.97,-5.74L4.97,-4.66L1.18,-4.66L1.18,-1.08L5.08,-1.08L5.08,0L0,0L0,-9.47Z" style="fill:rgb(98,187,70);fill-rule:nonzero;"/>
            </g>
            <g transform="matrix(1,0,0,1,0,63.74)">
                <path d="M0,14.22C0.33,14.03 0.54,13.74 0.54,13.28L0.54,0.94C0.54,0.46 0.33,0.17 0,0L3.79,0C3.43,0.17 3.25,0.46 3.25,0.94L3.25,13.28C3.25,13.74 3.44,14.03 3.79,14.22L0,14.22" style="fill:rgb(98,187,70);fill-rule:nonzero;"/>
            </g>
            <g transform="matrix(1,0,0,1,12.86,76.83)">
                <path d="M0,-11.96C-0.65,-11.96 -4.04,-12.04 -4.04,-12.04L-4.04,-7.23L-0.78,-7.23C-0.45,-7.23 -0.11,-7.56 -0.01,-7.82L-0.01,-5.6C-0.11,-5.89 -0.45,-6.21 -0.78,-6.21L-4.04,-6.21L-4.04,0.19C-4.04,0.69 -3.83,0.92 -3.43,1.13L-7.32,1.13C-6.92,0.92 -6.69,0.69 -6.69,0.19L-6.69,-12.15C-6.69,-12.63 -6.94,-12.92 -7.32,-13.09L1.57,-13.09L1.67,-11.06C1.42,-11.57 0.98,-11.94 0,-11.96" style="fill:rgb(98,187,70);fill-rule:nonzero;"/>
            </g>
            <g transform="matrix(1,0,0,1,19.4,76.98)">
                <path d="M0,-12.26C-0.63,-12.26 -1.07,-12.24 -1.07,-12.24L-1.07,-6.36C-0.97,-6.3 -0.55,-6.26 -0.25,-6.26C0.86,-6.26 2.97,-6.66 2.97,-9.36C2.97,-10.92 2.08,-12.26 0,-12.26M3.1,-5.65C2.41,-5.34 0.55,-4.92 -1.06,-5.5L-1.06,0.04C-1.06,0.5 -0.83,0.79 -0.52,0.98L-4.3,0.98C-3.97,0.79 -3.71,0.5 -3.71,0.04L-3.71,-12.3C-3.71,-12.78 -3.96,-13.07 -4.3,-13.24L0.45,-13.24C4.65,-13.24 5.68,-11.07 5.68,-9.35C5.67,-7.07 3.71,-5.92 3.1,-5.65" style="fill:rgb(98,187,70);fill-rule:nonzero;"/>
            </g>
            <g transform="matrix(1,0,0,1,30.53,77.02)">
                <path d="M0,-12.28C-0.63,-12.28 -1.21,-12.24 -1.21,-12.24L-1.21,-6.78C-1.21,-6.78 -0.62,-6.74 -0.27,-6.74C1.15,-6.74 2.66,-7.53 2.66,-9.65C2.65,-10.61 2.07,-12.28 0,-12.28M6.11,0.98C5.32,1 4.62,0.5 4.25,0C3.31,-1.32 2.39,-2.84 1.64,-4.02C1.1,-4.86 0.62,-5.76 -0.28,-5.76C-0.53,-5.76 -1.2,-5.72 -1.2,-5.72L-1.2,-0.01C-1.2,0.45 -0.97,0.74 -0.61,0.93L-4.4,0.93C-4.07,0.74 -3.86,0.45 -3.86,-0.01L-3.86,-12.34C-3.86,-12.82 -4.07,-13.11 -4.4,-13.28L0.12,-13.28C4.45,-13.28 5.43,-11.17 5.43,-9.77C5.43,-7.51 3.38,-6.38 1.9,-6.28C3.32,-6.13 3.95,-5.17 4.26,-4.71C4.26,-4.71 6.79,-0.76 7.5,0.1C7.92,0.58 8.84,0.94 8.84,0.94L6.11,0.98Z" style="fill:rgb(98,187,70);fill-rule:nonzero;"/>
            </g>
            <g transform="matrix(1,0,0,1,38.47,63.74)">
                <path d="M0,14.22C0.33,14.03 0.54,13.74 0.54,13.28L0.54,0.94C0.54,0.46 0.33,0.17 0,0L3.79,0C3.43,0.17 3.25,0.46 3.25,0.94L3.25,13.28C3.25,13.74 3.44,14.03 3.79,14.22L0,14.22" style="fill:rgb(98,187,70);fill-rule:nonzero;"/>
            </g>
            <g transform="matrix(1,0,0,1,28.63,11.15)">
                <path d="M0,36.2C-2.17,36.2 -3.94,34.39 -3.94,32.17C-3.94,29.95 -2.17,28.13 0,28.13C2.17,28.13 3.94,29.94 3.94,32.17C3.94,34.39 2.17,36.2 0,36.2M-13.33,12.39C-13.33,10.55 -11.87,9.06 -10.07,9.06C-8.28,9.06 -6.81,10.56 -6.81,12.39C-6.81,14.23 -8.27,15.72 -10.07,15.72C-11.87,15.73 -13.33,14.23 -13.33,12.39M-21.35,-4.77C-21.35,-6.24 -20.16,-7.44 -18.7,-7.44C-17.24,-7.44 -16.05,-6.24 -16.05,-4.77C-16.05,-3.3 -17.24,-2.1 -18.7,-2.1C-20.16,-2.1 -21.35,-3.3 -21.35,-4.77M13.17,27.11L13.17,2.9C2.66,7.83 -4.26,18.09 -6.57,31.21C-8.19,29.44 -10.11,27.64 -12.06,26.12C-7.34,13.68 1.13,5.38 13.17,2.17L13.17,-10.65L-2.95,-10.65C-9.9,-6.27 -14.5,1.33 -16.15,10.75C-17.47,9.32 -19.02,7.86 -20.59,6.63C-17.56,-1.37 -12.62,-7.26 -5.83,-10.65L-28.08,-10.65L-28.08,-8.17C-24.59,-5.65 -21.77,-2.47 -19.72,1.43L-21.59,5.89C-22.14,5.48 -23.67,4.49 -23.67,4.49C-24.38,1.37 -24.91,0.6 -26.51,-1.8C-26.99,-2.65 -27.53,-3.46 -28.08,-4.21L-28.08,3.91C-20.55,7.41 -14.74,12.57 -10.98,19.72L-13.29,25.23C-13.97,24.72 -15.86,23.5 -15.86,23.5C-16.73,19.64 -17.39,18.69 -19.37,15.73C-21.7,11.58 -24.67,8.46 -28.08,6.05L-28.08,19.5C-16.26,23.11 -7.18,30.21 -1.12,41.12L-3.86,46.85L-2,46.85C1.5,38.41 6.46,31.76 13.17,27.11" style="fill:rgb(98,187,70);fill-rule:nonzero;"/>
            </g>
            <g transform="matrix(1,0,0,1,0.55,58)">
                <path d="M0,-26.26L0,0L21.15,0C17.26,-12.9 10.03,-21.37 0,-26.26" style="fill:rgb(98,187,70);fill-rule:nonzero;"/>
            </g>
            <g transform="matrix(1,0,0,1,41.8,44.33)">
                <path d="M0,13.67L0,0C-3.03,4.14 -5.32,8.65 -6.89,13.67L0,13.67Z" style="fill:rgb(98,187,70);fill-rule:nonzero;"/>
            </g>
        </g>
    </g>
</svg>
