<?xml version="1.0" encoding="UTF-8" standalone="no"?>
<!DOCTYPE svg PUBLIC "-//W3C//DTD SVG 1.1//EN" "http://www.w3.org/Graphics/SVG/1.1/DTD/svg11.dtd">
<svg width="100%" height="100%" viewBox="0 0 1193 568" version="1.1" xmlns="http://www.w3.org/2000/svg" xmlns:xlink="http://www.w3.org/1999/xlink" xml:space="preserve" xmlns:serif="http://www.serif.com/" style="fill-rule:evenodd;clip-rule:evenodd;stroke-linejoin:round;stroke-miterlimit:2;">
    <g transform="matrix(1,0,0,1,-16.666667,-11.666667)">
        <g transform="matrix(2.466667,0,0,4.166667,0,0)">
            <g id="Livello-1" serif:id="Livello 1" transform="matrix(1.689189,0,0,1,0,0)">
                <g transform="matrix(1,0,0,1,5.5,87.8)">
                    <path d="M0,-33.9L-0.2,-46.6L-0.4,-59.4L-0.9,-72.2L-1.5,-84.9L3.2,-84.3L7.8,-84.1L12.5,-84.3L17.3,-84.9L16.7,-72.2L16.1,-59.4L15.8,-46.6L15.8,12.7L16.1,25.4L17.3,51L12.5,50.3L7.8,50.1L3.2,50.3L-1.5,51L-0.9,38.2L-0.4,25.4L-0.2,12.7L0,-0.1L0,-33.9Z" style="fill:rgb(121,33,28);fill-rule:nonzero;"/>
                </g>
                <g transform="matrix(1,0,0,1,59,87.8)">
                    <path d="M0,-33.9L-0.2,-46.6L-0.4,-59.4L-0.9,-72.2L-1.5,-84.9L3.4,-84.3L8,-84.1L12.5,-84.3L17.3,-84.9L16.7,-72.2L16.1,-59.4L15.8,-46.6L15.8,9L16.3,41.7L28.9,41.7L41.6,41.2L54.7,40.4L67.9,39.1L67.2,42.1L67,45.1L67.2,47.9L67.9,51L50.5,50.3L33.2,50.1L15.8,50.3L-1.5,51L-0.9,38.2L-0.4,25.4L-0.2,12.7L0,-0.1L0,-33.9Z" style="fill:rgb(121,33,28);fill-rule:nonzero;"/>
                </g>
                <g transform="matrix(1,0,0,1,171.1,76.5)">
                    <path d="M0,-11.3L2.7,-10.9L5.7,-10.5L8.9,-10.3L15.5,-10.3L18.5,-10.7L21.7,-11.1L24.7,-12L27.9,-12.6L30.6,-13.7L33.6,-15.2L36.3,-16.7L38.8,-18.6L41.1,-20.8L43.2,-23.4L44.9,-26L46.4,-29.2L47.2,-32.7L47.8,-36.4L48,-40.5L47.8,-44.4L47.4,-47.9L46.6,-50.9L45.5,-53.5L44,-55.9L42.5,-57.8L40.6,-59.7L36.4,-62.7L34.1,-63.8L31.8,-64.7L29.3,-65.3L24.2,-65.9L19.3,-66.1L8.5,-65.9L4.3,-65.5L1.1,-65.3L0.7,-54.5L0.3,-43.9L0.1,-33.1L0.1,-11.3L0,-11.3ZM-15.9,-22.6L-16.1,-35.3L-16.3,-48.1L-16.7,-60.9L-17.3,-73.7L-6.5,-73.1L4.1,-72.9L9.6,-72.9L14.7,-73.3L20.2,-73.7L29.5,-73.7L33.3,-73.5L37.1,-72.9L40.5,-72.3L43.9,-71.4L50.3,-68.8L53,-67.3L55.5,-65.4L57.8,-63L59.9,-60.4L61.4,-57.6L62.7,-54.4L63.5,-50.9L64.1,-47L64.3,-42.7L64.1,-38.2L63.3,-34.1L61.5,-28.4L60.7,-26.7L58.6,-23.7L56.3,-20.7L53.8,-18.1L51.1,-15.7L48.1,-13.5L44.9,-11.6L41.7,-10.1L35.3,-7.5L32.1,-6.6L29.1,-6L26.4,-5.4L38.7,11L51.2,27.7L64.1,44.6L77.4,61.7L71.7,61.1L66.2,60.7L60.9,61.1L55.4,61.7L51.8,55.9L46.9,48.8L34.2,31.5L27.2,21.8L20.2,12.7L13.4,4.5L6.8,-2.9L-0.2,-2.9L-0.2,24.2L0.2,36.8L0.6,49.6L1.2,62.4L-3.5,61.8L-8.2,61.4L-12.9,61.8L-17.8,62.4L-17.2,49.6L-16.8,36.8L-16.6,24.2L-16.4,11.4L-16.4,-22.6L-15.9,-22.6Z" style="fill:rgb(121,33,28);fill-rule:nonzero;"/>
                </g>
                <g transform="matrix(1,0,0,1,273,87.8)">
                    <path d="M0,-33.9L-0.2,-46.6L-0.7,-59.4L-1.1,-72.2L-1.5,-84.9L3.1,-84.3L7.8,-84.1L12.4,-84.3L17.3,-84.9L16.5,-72.2L16,-59.4L15.8,-46.6L15.6,-33.9L15.6,-0.1L15.8,12.7L16,25.4L16.5,38.2L17.3,51L12.4,50.3L7.8,50.1L3.1,50.3L-1.5,51L-0.7,25.4L-0.2,12.7L0,-0.1L0,-33.9Z" style="fill:rgb(121,33,28);fill-rule:nonzero;"/>
                </g>
            </g>
        </g>
    </g>
</svg>
